<svg xmlns="http://www.w3.org/2000/svg" viewBox="0 0 900 1125" role="img" aria-labelledby="title desc">
  <title id="title">Art For Soul founder portrait placeholder</title>
  <desc id="desc">A warm illustrated placeholder for the Art For Soul founder photo.</desc>
  <defs>
    <linearGradient id="background" x1="0" x2="1" y1="0" y2="1">
      <stop offset="0" stop-color="#fbf3ea"/>
      <stop offset="0.42" stop-color="#f0c7bd"/>
      <stop offset="1" stop-color="#b9caa1"/>
    </linearGradient>
    <radialGradient id="glow" cx="50%" cy="33%" r="58%">
      <stop offset="0" stop-color="#fffaf4" stop-opacity="0.96"/>
      <stop offset="0.56" stop-color="#fffaf4" stop-opacity="0.42"/>
      <stop offset="1" stop-color="#fffaf4" stop-opacity="0"/>
    </radialGradient>
    <filter id="softShadow" x="-30%" y="-30%" width="160%" height="160%">
      <feDropShadow dx="0" dy="22" stdDeviation="26" flood-color="#5d4033" flood-opacity="0.22"/>
    </filter>
  </defs>

  <rect width="900" height="1125" fill="url(#background)"/>
  <rect width="900" height="1125" fill="url(#glow)"/>

  <g opacity="0.32" fill="none" stroke="#8b6f5c" stroke-width="5" stroke-linecap="round">
    <path d="M120 176c72-52 150-66 235-28"/>
    <path d="M735 187c-84 23-128 69-148 140"/>
    <path d="M151 900c88-54 183-62 285-24"/>
    <path d="M687 852c-58 36-95 88-110 156"/>
  </g>

  <g transform="translate(450 528)" filter="url(#softShadow)">
    <path d="M-219 280c8-152 94-243 219-243s211 91 219 243z" fill="#f9e2d7"/>
    <path d="M-180 280c9-111 76-176 180-176s171 65 180 176z" fill="#fff7ef"/>
    <circle cx="0" cy="-98" r="152" fill="#f6c6b5"/>
    <path d="M-146-69c6-136 63-225 154-225 78 0 128 70 140 191-40-33-91-52-148-52-58 0-109 31-146 86z" fill="#6f4f3f"/>
    <path d="M-156-45c15-145 73-237 165-237 86 0 143 88 153 228 26-67 5-147-50-202-62-62-161-70-236-15-66 48-94 139-32 226z" fill="#5b4033"/>
    <path d="M-88-70c30 26 67 39 110 39 32 0 65-8 98-24-16 76-60 124-122 124-55 0-95-48-86-139z" fill="#f3b8a5"/>
    <path d="M-73 6c44 41 98 42 145 0" fill="none" stroke="#8f594b" stroke-width="8" stroke-linecap="round"/>
    <circle cx="-56" cy="-51" r="10" fill="#5b4033"/>
    <circle cx="63" cy="-51" r="10" fill="#5b4033"/>
    <path d="M-32-3c20 12 41 12 63 0" fill="none" stroke="#b66f61" stroke-width="7" stroke-linecap="round"/>
  </g>

  <g transform="translate(450 929)" text-anchor="middle">
    <text y="0" font-family="Georgia, 'Times New Roman', serif" font-size="56" fill="#3f3028">Nitu Mastud</text>
    <text y="55" font-family="Arial, sans-serif" font-size="23" letter-spacing="5" fill="#6f5a4f">ART FOR SOUL</text>
  </g>
</svg>
